<svg xmlns="http://www.w3.org/2000/svg" width="14" height="14" viewBox="0 0 14 14" fill="none">
  <path d="M12.3433 1.24239L6.02582 7.58322C5.9534 7.54126 5.87724 7.50611 5.79832 7.47822L1.62749 6.06656C1.50135 6.03495 1.3894 5.9621 1.3094 5.85958C1.22941 5.75706 1.18596 5.63076 1.18596 5.50072C1.18596 5.37069 1.22941 5.24439 1.3094 5.14187C1.3894 5.03935 1.50135 4.9665 1.62749 4.93489L11.9758 1.25406C12.0435 1.23109 12.1144 1.21927 12.1858 1.21906C12.2392 1.2182 12.2924 1.22608 12.3433 1.24239Z" fill="#84829A"/>
  <path d="M12.7459 2.02424L9.06502 12.3842C9.02443 12.505 8.94544 12.6091 8.8401 12.6807C8.73477 12.7524 8.60889 12.7875 8.48168 12.7809C8.35301 12.7868 8.22601 12.7499 8.12049 12.6761C8.01496 12.6022 7.93686 12.4955 7.89835 12.3726L6.51002 8.20174C6.48213 8.12282 6.44698 8.04666 6.40502 7.97424L12.7575 1.65674C12.7933 1.77729 12.7893 1.9062 12.7459 2.02424Z" fill="#84829A"/>
</svg>